<svg xmlns="http://www.w3.org/2000/svg" width="192" height="192" viewBox="0 0 192 192">
  <defs>
    <linearGradient id="bg" x1="0%" y1="0%" x2="100%" y2="100%">
      <stop offset="0%" style="stop-color:#f3d3ed"/>
      <stop offset="100%" style="stop-color:#dc8fc9"/>
    </linearGradient>
  </defs>
  <rect width="192" height="192" rx="32" fill="url(#bg)"/>
  <g transform="translate(40, 40)" fill="#6f3a61">
    <!-- Coffee cup -->
    <path d="M20,20 L20,85 C20,95 30,105 50,105 L70,105 C90,105 100,95 100,85 L100,20 Z" fill="none" stroke="#6f3a61" stroke-width="6"/>
    <path d="M100,35 L110,35 C125,35 130,50 125,65 C120,80 110,80 100,80" fill="none" stroke="#6f3a61" stroke-width="6"/>
    <!-- Steam -->
    <path d="M40,5 Q45,-5 40,-15 Q35,-25 40,-35" fill="none" stroke="#a85596" stroke-width="4" stroke-linecap="round"/>
    <path d="M60,5 Q65,-5 60,-15 Q55,-25 60,-35" fill="none" stroke="#a85596" stroke-width="4" stroke-linecap="round"/>
    <path d="M80,5 Q85,-5 80,-15 Q75,-25 80,-35" fill="none" stroke="#a85596" stroke-width="4" stroke-linecap="round"/>
  </g>
  <text x="96" y="170" text-anchor="middle" font-family="serif" font-size="22" font-weight="bold" fill="#6f3a61">Emilia Café</text>
</svg>
